<svg width="40" height="40" viewBox="0 0 40 40" fill="none" xmlns="http://www.w3.org/2000/svg">
<g clip-path="url(#clip0_2964_5707)">
<path d="M20 0C14.6969 0 9.60625 2.10844 5.85938 5.85781C2.10866 9.60869 0.00107328 14.6956 0 20C0 25.3022 2.10938 30.3928 5.85938 34.1422C9.60625 37.8916 14.6969 40 20 40C25.3031 40 30.3938 37.8916 34.1406 34.1422C37.8906 30.3928 40 25.3022 40 20C40 14.6978 37.8906 9.60719 34.1406 5.85781C30.3938 2.10844 25.3031 0 20 0Z" fill="url(#paint0_linear_2964_5707)"/>
<path d="M9.05328 19.7887C14.8845 17.2487 18.772 15.5741 20.7158 14.7649C26.272 12.4546 27.4251 12.0534 28.1783 12.0398C28.3439 12.0371 28.7127 12.0781 28.9533 12.2726C29.1533 12.4367 29.2095 12.6585 29.2376 12.8143C29.2626 12.9699 29.297 13.3246 29.2689 13.6015C28.9689 16.764 27.6658 24.4384 27.0033 27.9806C26.7252 29.4793 26.172 29.9818 25.6377 30.0309C24.4752 30.1378 23.5939 29.2634 22.4689 28.5262C20.7095 27.3721 19.7158 26.654 18.0064 25.5281C16.0314 24.2268 17.3127 23.5115 18.4377 22.3428C18.7314 22.0368 23.8502 17.3821 23.947 16.9599C23.9595 16.9071 23.972 16.7103 23.8533 16.6065C23.7377 16.5024 23.5658 16.5381 23.4408 16.5662C23.2627 16.6062 20.4533 18.4649 15.0033 22.1421C14.2064 22.6903 13.4845 22.9574 12.8345 22.9434C12.122 22.9281 10.747 22.5396 9.72515 22.2078C8.47515 21.8006 7.47828 21.5853 7.56578 20.8937C7.60953 20.5337 8.1064 20.1653 9.05328 19.7887Z" fill="white"/>
</g>
<defs>
<linearGradient id="paint0_linear_2964_5707" x1="2000" y1="0" x2="2000" y2="4000" gradientUnits="userSpaceOnUse">
<stop stop-color="#2AABEE"/>
<stop offset="1" stop-color="#229ED9"/>
</linearGradient>
<clipPath id="clip0_2964_5707">
<rect width="40" height="40" fill="white"/>
</clipPath>
</defs>
</svg>