<svg width="135" height="150" viewBox="0 0 135 150" fill="none" xmlns="http://www.w3.org/2000/svg">
<path fill-rule="evenodd" clip-rule="evenodd" d="M58.9383 0.133115C54.4438 0.585645 49.2132 1.78109 45.6106 3.17927C42.8877 4.23601 38.5206 6.55954 36.133 8.22174C27.0595 14.5392 21.6382 22.7952 19.6809 33.2764C18.9337 37.2772 18.5965 40.8618 18.3666 47.2447C17.5018 71.2698 16.8528 77.8937 14.6913 84.7514C13.4259 88.7666 11.6019 92.0943 7.71885 97.4714C1.87536 105.564 0 110.066 0 116.005C0 120.239 1.06997 123.223 3.53571 125.867C6.18369 128.707 9.11224 129.884 13.5252 129.885C16.7087 129.885 18.6279 129.474 23.4936 127.749C27.7012 126.258 29.1819 125.871 31.3125 125.709C34.6895 125.451 38.0625 126.85 40.4285 129.489C42.0796 131.331 42.8447 132.731 44.3179 136.605C46.9356 143.489 49.1001 146.634 52.5374 148.548C54.2533 149.503 55.9452 149.906 58.2551 149.91C61.209 149.915 63.3225 149.148 66.0731 147.074C67.8569 145.729 69.24 144.329 72.3887 140.68C73.9418 138.88 75.7714 136.96 76.4543 136.412C78.768 134.557 80.94 133.822 82.9305 134.223C85.3178 134.702 86.743 135.897 89.2946 139.557C93.442 145.506 95.1677 147.434 97.4846 148.708C100.885 150.577 104.818 150.41 107.943 148.262C110.764 146.325 113.127 142.49 113.952 138.511C114.367 136.509 114.253 132.314 113.671 128.155C112.743 121.533 112.777 119.336 113.847 116.942C114.453 115.583 115.251 114.939 116.485 114.814C117.589 114.701 118.387 115.081 120.383 116.666C122.881 118.652 124.582 119.268 127.178 119.129C129.208 119.021 130.859 118.154 132.405 116.384C135.924 112.356 135.862 106.897 132.23 101.114C131.121 99.3472 128.694 96.7092 127.251 95.7008C126.819 95.3989 125.57 94.5344 124.476 93.7798C119.008 90.0089 115.919 85.1037 113.646 76.5836C111.877 69.9524 111.084 62.695 110.47 47.5029C110.156 39.7436 109.727 35.4099 108.867 31.3133C107.866 26.5422 106.027 22.0286 103.597 18.3801C102.084 16.1083 98.4029 12.1587 96.1115 10.3488C89.5975 5.20362 81.1366 1.71059 72.0686 0.423086C69.302 0.0301824 61.6408 -0.139072 58.9383 0.133115ZM82.8296 27.5929C81.5065 28.059 80.8839 28.4858 79.8982 29.6024C77.5069 32.3113 76.4536 37.1878 76.664 44.5739C76.8643 51.5974 78.1722 56.207 80.7299 58.9053C82.0364 60.2836 83.1502 60.898 84.8657 61.1868C87.2656 61.5907 89.4332 60.8169 91.2314 58.9143C92.592 57.4747 93.4124 55.9683 94.1501 53.5553C95.1219 50.3769 95.2702 49.1394 95.2522 44.3647C95.237 40.317 95.1948 39.8066 94.7148 37.8791C93.5688 33.2764 91.0863 29.5706 88.1852 28.132C86.6239 27.3579 84.1914 27.1129 82.8296 27.5929ZM46.1559 30.4398C42.2144 31.7748 39.4906 35.792 38.6055 41.5748C37.5233 48.6448 39.3741 56.4395 42.8929 59.6313C44.9084 61.4592 47.8332 62.3345 50.3803 61.8717C55.5991 60.9234 58.8191 56.2257 59.8476 48.0592C60.1637 45.5489 59.9664 41.4391 59.4343 39.4482C58.4662 35.8263 56.2692 32.6307 53.7899 31.2378C51.6112 30.0139 48.4033 29.6785 46.1559 30.4398Z" fill="#EEEEEE" fill-opacity="0.1"/>
</svg>
